/* XPM */
static char * rect_xpm[] = {
"32 32 157 2",
"  	c None",
". 	c #385F7E",
"+ 	c #3B6587",
"@ 	c #3B6588",
"# 	c #3B6689",
"$ 	c #3C6688",
"% 	c #406889",
"& 	c #395E7E",
"* 	c #3A6587",
"= 	c #2C4A61",
"- 	c #203444",
"; 	c #19262F",
"> 	c #1C2B36",
", 	c #1F3546",
"' 	c #335672",
") 	c #3C688B",
"! 	c #3A6486",
"~ 	c #365977",
"{ 	c #3A6384",
"] 	c #3C678A",
"^ 	c #2D4C64",
"/ 	c #1A2B3A",
"( 	c #000000",
"_ 	c #06090C",
": 	c #172734",
"< 	c #335774",
"[ 	c #3C6687",
"} 	c #3C6485",
"| 	c #253F55",
"1 	c #396385",
"2 	c #3A6382",
"3 	c #3A6487",
"4 	c #1C2E3D",
"5 	c #386182",
"6 	c #396486",
"7 	c #345772",
"8 	c #2F4C63",
"9 	c #264055",
"0 	c #3B668A",
"a 	c #3A6284",
"b 	c #2B475E",
"c 	c #05090C",
"d 	c #31536E",
"e 	c #375E7D",
"f 	c #3A6688",
"g 	c #375974",
"h 	c #264155",
"i 	c #325571",
"j 	c #31526B",
"k 	c #2A4459",
"l 	c #2C495E",
"m 	c #335673",
"n 	c #14212C",
"o 	c #2E4D65",
"p 	c #23394B",
"q 	c #2D4A60",
"r 	c #30526D",
"s 	c #396485",
"t 	c #233B4F",
"u 	c #2A4458",
"v 	c #3B678A",
"w 	c #345976",
"x 	c #1B2B39",
"y 	c #1D3344",
"z 	c #25394A",
"A 	c #335875",
"B 	c #30516C",
"C 	c #3A6385",
"D 	c #263D50",
"E 	c #325673",
"F 	c #375F80",
"G 	c #385F7D",
"H 	c #264054",
"I 	c #345C7A",
"J 	c #121E27",
"K 	c #223748",
"L 	c #345A77",
"M 	c #274053",
"N 	c #3E688B",
"O 	c #263F53",
"P 	c #345A78",
"Q 	c #31536F",
"R 	c #243748",
"S 	c #29465C",
"T 	c #3E6788",
"U 	c #386082",
"V 	c #010202",
"W 	c #2B4C65",
"X 	c #375873",
"Y 	c #3E6889",
"Z 	c #2C4C64",
"` 	c #3F688A",
" .	c #355670",
"..	c #2B4860",
"+.	c #22384A",
"@.	c #3A6588",
"#.	c #396283",
"$.	c #365E7D",
"%.	c #355A77",
"&.	c #3E6789",
"*.	c #0E151B",
"=.	c #386080",
"-.	c #030304",
";.	c #386180",
">.	c #386081",
",.	c #101C24",
"'.	c #2B4A62",
").	c #396081",
"!.	c #22394B",
"~.	c #121D26",
"{.	c #3C688C",
"].	c #426A8A",
"^.	c #396181",
"/.	c #3B6486",
"(.	c #3B6688",
"_.	c #335572",
":.	c #30506A",
"<.	c #375D7B",
"[.	c #3A6485",
"}.	c #2D4C65",
"|.	c #3A6586",
"1.	c #0B1218",
"2.	c #3D6688",
"3.	c #385E7C",
"4.	c #16242E",
"5.	c #2A465C",
"6.	c #365B78",
"7.	c #396183",
"8.	c #3B6180",
"9.	c #375E7B",
"0.	c #345671",
"a.	c #213748",
"b.	c #365D7B",
"c.	c #213344",
"d.	c #090F14",
"e.	c #375F7E",
"f.	c #3C6587",
"g.	c #34546F",
"h.	c #3B678B",
"i.	c #284258",
"j.	c #000102",
"k.	c #203545",
"l.	c #3D6789",
"m.	c #3B6586",
"n.	c #2F516C",
"o.	c #111B23",
"p.	c #386284",
"q.	c #396285",
"r.	c #396586",
"s.	c #385E7D",
"t.	c #243A4C",
"u.	c #020203",
"v.	c #0A1116",
"w.	c #101C25",
"x.	c #121F2A",
"y.	c #152531",
"z.	c #0E171F",
"                          . + @ # # @ $ %                       ",
"                    & * * + = - ; > , ' ) ! !                   ",
"                ~ { ] ^ /             ( _ : < ) [       }       ",
"      | 1     2 3 .                         ( 4 5 6 7 8 *       ",
"      ( 9 0 a # b                             ( c d ! 3         ",
"        ( e f g                                   h # i         ",
"        j 0 k 6                                 l f m           ",
"      n ! o ( p )                             q @ r             ",
"      i s     ( t #                         u v w               ",
"    x )         ( y !                     z 3 A                 ",
"    B C           ( t )                 D # E                   ",
"  ( F G             ( H *             4 # I                     ",
"  J v                 ( K 3           C L                       ",
"  M N                   ( O #       ) P                         ",
"  Q *                     ( R     ( S                           ",
"( * T                           U                               ",
"( ! +                         V W                           X Y ",
"( Z `                       3  .                            ..* ",
"  +.@.                    #.$.                              %.&.",
"  *.#                   C =.                              -.@   ",
"  ( e +               ;.>.                                ,.!   ",
"  ( '.!             ).=.                                  !.#   ",
"    ~.{.].        ^./.                                  ( (._.  ",
"    ( :.1       <.[.                                    }.|.    ",
"      1.* 2.  3.C                                     4.+       ",
"      ( 5.@.1 +                                       @.6.      ",
"        ( 7.# 8.                                    5 9.        ",
"        0.1 a.1 2.                              b 3 b.          ",
"      c.#   ( d.e.3 f.                      g.C h.i.            ",
"      j.        ( k.P ) l.T             e m.{ n.                ",
"                    ( o.B C p.1 1 1 q.r.s.t.                    ",
"                          u.v.w.x.y.z.                          "};
